/* XPM */
static char * d_xpm[] = {
/* width height num_colors chars_per_pixel */
"20 20 3 1",
/* colors */
" 	s None	c None",
".	c #000000",
"X	c #008080",
/* pixels */
"                    ",
"                    ",
"                    ",
"   ..............   ",
"   .XXXXXXXXXXXX.   ",
"    .XXXXXXXXXX.    ",
"    .XXXXXXXXXX.    ",
"     .XXXXXXXX.     ",
"     .XXXXXXXX.     ",
"      .XXXXXX.      ",
"      .XXXXXX.      ",
"       .XXXX.       ",
"       .XXXX.       ",
"        .XX.        ",
"        .XX.        ",
"         ..         ",
"         ..         ",
"                    ",
"                    ",
"                    "};
