/* XPM */
static char * gnome_error_xpm[] = {
"48 48 33 1",
" 	c None",
".	c #020202",
"+	c #DEAE2B",
"@	c #140706",
"#	c #D4A639",
"$	c #5D1D17",
"%	c #D0A234",
"&	c #C99E36",
"*	c #E9311B",
"=	c #961E12",
"-	c #CC8C2B",
";	c #CB2B17",
">	c #8E3A32",
",	c #AC2313",
"'	c #9F3229",
")	c #2D0E0B",
"!	c #C27A2E",
"~	c #A42517",
"{	c #6C2119",
"]	c #9A2C21",
"^	c #AB3225",
"/	c #441511",
"(	c #832821",
"_	c #D6AC45",
":	c #BC2817",
"<	c #A32C20",
"[	c #AE2E21",
"}	c #DE2C18",
"|	c #F93419",
"1	c #DCB03B",
"2	c #942A21",
"3	c #A6392F",
"4	c #AF2A1C",
"                                                ",
"                                                ",
"                                                ",
"                                                ",
"                                                ",
"                                                ",
"                                                ",
"                                                ",
"                   ||||*****                    ",
"                ||*}::,,,:4:;;;                 ",
"               |};,,,,,~=~~<444:4               ",
"             |*;,,,,,,=~,~,~~~4444              ",
"            |},,,,=,==~,~~~~<~]<~<<             ",
"           |},,,,,,,,=~,~~~^^~~~<<~2            ",
"          |},,,=,,,~,~=~~~~~^^<~~<~](           ",
"         |},=,,,,~[[~,<=~<4<4^33<<<~2{          ",
"         |:,,,=,4<~^^~~~~=~]<~<^3<<<~(          ",
"        |},,,,,,=]^~^^<<~~2=~<~<33<]<2$         ",
"        |:,=,=,~~,~^^^^<<~<2=]<<<33<<](         ",
"        },,,,=,~~~,~^^3^~<~~2=~<<<33]<()        ",
"       |;,-+++++++++++111+_+_%&%###!<<2/        ",
"       |:,+++++++++++++1+_+####%####']]/        ",
"       *:,++++++++++#++#%__#########'']$.       ",
"       *:,+++++++#++++#+%%%1+###&&&&']2$.       ",
"       }:,+++++++++#++####%%___#%%%%''2/.       ",
"       *,,++++++1+++%+%###%&%##_####''(/.       ",
"       ;:,-+++++++1+##&%%##%&#%__%#!''(@.       ",
"       ::,,,4,,2~<^3[<<<]<]]]2']'>'>''{@.       ",
"        ;[<~<<~~2=]^<<<<22']'<']3'33](/..       ",
"        44~~~<<<<2~]'<<<'(2]]'']'''3>(@.        ",
"        {:<<~<<<<<2<'3]<<]'']''''3'3>/@.        ",
"         (4~<~~<<<]]<3<]]']'2]'']''>{@..        ",
"          ]~<<<<<<<]]'3'<'<'']''''2{)..         ",
"          /]]<<<<<''''332]'3'>'''>()...         ",
"           )=2<]<<<<<']3>]''''''({)...          ",
"            @{2<]<<'''''>3''']>($)...           ",
"             ./(2]]<<']''3']>({/....            ",
"              .@){((22'2>2({$)@....             ",
"                ..@)//$$//)@.....               ",
"                  .............                 ",
"                     .......                    ",
"                                                ",
"                                                ",
"                                                ",
"                                                ",
"                                                ",
"                                                ",
"                                                "};
