/* XPM */
static char * gnome_warning_xpm[] = {
"48 48 33 1",
" 	c None",
".	c #040302",
"+	c #DEB012",
"@	c #DBAA17",
"#	c #230706",
"$	c #58110B",
"%	c #C99513",
"&	c #CE8815",
"*	c #D42613",
"=	c #C47615",
"-	c #72160F",
";	c #7C620C",
">	c #8B1B12",
",	c #BD2212",
"'	c #443406",
")	c #614D09",
"!	c #74580C",
"~	c #332705",
"{	c #BA5A12",
"]	c #981D13",
"^	c #2D0A07",
"/	c #503E06",
"(	c #DA2613",
"_	c #AE4214",
":	c #C46A14",
"<	c #1D1103",
"[	c #A01E12",
"}	c #261E02",
"|	c #EE2A14",
"1	c #821911",
"2	c #420E0A",
"3	c #A71E0E",
"4	c #68140C",
"                                                ",
"                                                ",
"                                                ",
"                                                ",
"                                                ",
"                                                ",
"                                                ",
"                         |,                     ",
"                        |(3>                    ",
"                       |(3[]4                   ",
"                      ||333]>                   ",
"                      |,33_3]4                  ",
"                     |,33{:[[>                  ",
"                    |(333@@3[3-                 ",
"                    |,3[@++&3[>$                ",
"                   |,33:++++[[[-                ",
"                   (333@+%@@&[[>2               ",
"                  |,33&%..'@@[[[-               ",
"                 |*[[3+;.<.@@&3[>2              ",
"                 |333++}..<+@@[[[-              ",
"                |*33&++}..}@@@&[[>2             ",
"                (3[3+++}.<'@@@@[[[-             ",
"               |,3[&++@/.''@@@@&[[>2            ",
"              |(3[3++++<.}'+@@@@[[]4            ",
"              |333@++@+...}@@@@@&]]1^           ",
"             |*33&++++@.<.~@@@@@@[[[$           ",
"             |333++@@++.<./@@@@@@&[]1           ",
"            |*33&+++@@@~/<!@@@@@@@][>2          ",
"            |333+@@+@@+%)~%@@@@@@@&[]-          ",
"           |*33&+@@@@+@@@@+@@@@@@@@][12         ",
"           |,[3+++@+@@@%}}%@@@@@@@@:[]$         ",
"          |*[3&@@@+@@@+/..)@@@@@@@@&[[1^        ",
"          |,[3+@@@@@@@@~..!@@@@%@@@@]]>2        ",
"          *[3=+++@@@+@@%~;@@@@@@@@@@=]]4        ",
"         |,33333333{:=&@+@@@@@@@@%@@=_]-#       ",
"         *3[[333[3[[[[[]]]]]>]>]]]]]][]>2       ",
"         -24--1>>[[[[[[[[[][[]]][]][][[[$       ",
"          ...#^22$$44---11>>>>>>>>1>>11-$.      ",
"           ..........####2222222^22}22^^#.      ",
"                ..........................      ",
"                          ..............        ",
"                                                ",
"                                                ",
"                                                ",
"                                                ",
"                                                ",
"                                                ",
"                                                "};
