/* XPM */
static char * gnome_question_xpm[] = {
"48 48 33 1",
" 	c None",
".	c #020202",
"+	c #957637",
"@	c #BE9748",
"#	c #846934",
"$	c #725C32",
"%	c #F6CA6E",
"&	c #6E5626",
"*	c #DAAB50",
"=	c #664E26",
"-	c #DEBE76",
";	c #3A3A3A",
">	c #F6E1B7",
",	c #CAAE72",
"'	c #A78340",
")	c #1E1C16",
"!	c #DBC089",
"~	c #F6CE7E",
"{	c #D8B56E",
"]	c #CBA65B",
"^	c #F6DB9C",
"/	c #A28E56",
"(	c #BEA26E",
"_	c #DAB25F",
":	c #1A160E",
"<	c #A68A5A",
"[	c #F6C25A",
"}	c #F6D68E",
"|	c #C19F5A",
"1	c #B79143",
"2	c #9B7E42",
"3	c #81622E",
"4	c #DABA79",
"                                                ",
"                                                ",
"                                                ",
"                                                ",
"                                                ",
"                                                ",
"                                                ",
"                                                ",
"                   ........                     ",
"                 ...21*2'3...                   ",
"                ..*}}>}{44@'...                 ",
"               ..[>>}}[[[~!*'&..                ",
"               .[>^%'++'[[~{*'..                ",
"              .(}>[+....+[[%{*3..               ",
"              .%>~+..   .|[~*_'..               ",
"             ./}>*..    ./[%_*'..               ",
"             .*~['..    ./%%{*3..               ",
"             .[~['..    .<[{{*=..               ",
"             .__1#..    .(%4*'...               ",
"             .......    #_!_*$..                ",
"              .....    .1}!*1...                ",
"                      .1%4**...                 ",
"                     ..[}{*+...                 ",
"                     &|!{,(:..                  ",
"                    .#{{|(#..                   ",
"                    .+4__(..                    ",
"                    .@4__+..                    ",
"                    .*!,*$..                    ",
"                    .@4*@..                     ",
"                    .<''3..                     ",
"                    .);...                      ",
"                     ....                       ",
"                                                ",
"                     )....                      ",
"                    .4~}1..                     ",
"                    .~}}*..                     ",
"                    .}}_1..                     ",
"                    .}{*@..                     ",
"                    .]_@&..                     ",
"                     ......                     ",
"                      ....                      ",
"                                                ",
"                                                ",
"                                                ",
"                                                ",
"                                                ",
"                                                ",
"                                                "};
