/* XPM */
static char * gnome_info_xpm[] = {
"48 48 33 1",
" 	c None",
".	c #040404",
"+	c #403F3A",
"@	c #75736A",
"#	c #AA9A5A",
"$	c #D8C67D",
"%	c #C4C4C3",
"&	c #F5E6A5",
"*	c #D6D6D3",
"=	c #F7EBBA",
"-	c #30302C",
";	c #EFEADC",
">	c #E7D385",
",	c #676663",
"'	c #FAF3D8",
")	c #9B9A91",
"!	c #FAF6E5",
"~	c #151512",
"{	c #988C58",
"]	c #B5AA76",
"^	c #5A5A54",
"/	c #F1DF90",
"(	c #F8F5EF",
"_	c #A2A2A2",
":	c #A6A6A6",
"<	c #23221D",
"[	c #C3B16B",
"}	c #F8E695",
"|	c #FEFEFD",
"1	c #4B4B46",
"2	c #838077",
"3	c #8F8D82",
"4	c #B7B4A9",
"                                                ",
"                                                ",
"                                                ",
"                                                ",
"                                                ",
"                                                ",
"                                                ",
"                         |||||||                ",
"                       ||||||||||||             ",
"                     ||||||||||||||||           ",
"                    ||||||(%*%;|||||||          ",
"                   ||||;)1~--+<<,%|||||         ",
"                  ||||%-@$/&}}/$]{^4||||        ",
"                 ||||_<4//&=&}&&/$$<2||||       ",
"                 |||%~*//==!'&}&}/>*^3||||      ",
"                 |||14&/&'!!|!'}}}/$$-%|||      ",
"                |||4^//}'!'!!(!=}}//$_^|||      ",
"                |||23>&&'!('!!!=&}//$[-*|||     ",
"                |||,4//=!(!('!!=}}}/>[^_|||     ",
"                |||,$>}=!!!('''=&}}/>[@2|||     ",
"                |||^4>}=(!!!(';&&}}/>[@3|||     ",
"                |||23/}='|!(!===&}/}>[,:|||     ",
"                 ||%+>/}'!'('=&;/}//$#<*|||     ",
"                 ||(@)/&'!''=&=/}}/$$21|||      ",
"                 |||*+>&'!('&/&//>$$]1_|||      ",
"                  |||<}=''=;&&//>$$[{-(|||      ",
"                  ||;+/=';=&///$$$[{1)|||       ",
"                   (%1>&=////>$[[#2.2|||        ",
"                    ,~-,^_>>$$]{-~14||||        ",
"                    +)4;*,~{[##1,*(||||         ",
"                    .~^3*|%^12,<*|||||          ",
"                   ^<%:+~3%2^.+%||||            ",
"                   ~^*|(*-+@@~;|||              ",
"                   ..-)*(4@1++                  ",
"                  ~.441~33@,~3                  ",
"                  .@%(;4^12@.                   ",
"                  ..+-4;*,+^<                   ",
"                   .~~--)@,.                    ",
"                   ..~<<-,@.                    ",
"                   ~.~~~---~                    ",
"                   1.~~.~.                      ",
"                      ..                        ",
"                                                ",
"                                                ",
"                                                ",
"                                                ",
"                                                ",
"                                                "};
