/* XPM */
static char * l_xpm[] = {
/* width height num_colors chars_per_pixel */
"20 20 3 1",
/* colors */
" 	s None	c None",
".	c #000000",
"X	c #008080",
/* pixels */
"                    ",
"                    ",
"                    ",
"               ..   ",
"             ..X.   ",
"           ..XXX.   ",
"         ..XXXXX.   ",
"       ..XXXXXXX.   ",
"     ..XXXXXXXXX.   ",
"   ..XXXXXXXXXXX.   ",
"   ..XXXXXXXXXXX.   ",
"     ..XXXXXXXXX.   ",
"       ..XXXXXXX.   ",
"         ..XXXXX.   ",
"           ..XXX.   ",
"             ..X.   ",
"               ..   ",
"                    ",
"                    ",
"                    "};
