/* XPM */
static char *error[] = {
/* width height num_colors chars_per_pixel */
"    48    48        4            1",
/* colors */
". c #f80000",
"# c #a0a0a4",
"a c #ffffff",
"b c None",
/* pixels */
"bbbbbbbbbbbbbbbbbbbbbbbbbbbbbbbbbbbbbbbbbbbbbbbb",
"bbbbbbbbbbbbbbbbbbbbbbbbbbbbbbbbbbbbbbbbbbbbbbbb",
"bbbbbbbbbbbbbbbbbbbbbbbbbbbbbbbbbbbbbbbbbbbbbbbb",
"bbbbbbbbbbbbbbbbbbbbbbbbbbbbbbbbbbbbbbbbbbbbbbbb",
"bbbbbbbbbbbbbbbbbbbbbbbbbbbbbbbbbbbbbbbbbbbbbbbb",
"bbbbbbbbbbbbbbbbbbbbbbbbbbbbbbbbbbbbbbbbbbbbbbbb",
"bbbbbbbbbbbbbbbbbbbbbbbbbbbbbbbbbbbbbbbbbbbbbbbb",
"bbbbbbbbbbbbbbbbbbbbbbbbbbbbbbbbbbbbbbbbbbbbbbbb",
"bbbbbbbbbbbbbbbbbbbbbbbbbbbbbbbbbbbbbbbbbbbbbbbb",
"bbbbbbbbbbbbbbbbbbb........bbbbbbbbbbbbbbbbbbbbb",
"bbbbbbbbbbbbbbbbb............bbbbbbbbbbbbbbbbbbb",
"bbbbbbbbbbbbbbb................bbbbbbbbbbbbbbbbb",
"bbbbbbbbbbbbbb..................bbbbbbbbbbbbbbbb",
"bbbbbbbbbbbbb....................#bbbbbbbbbbbbbb",
"bbbbbbbbbbbb......................#bbbbbbbbbbbbb",
"bbbbbbbbbbb........................#bbbbbbbbbbbb",
"bbbbbbbbbb.......a..........a.......#bbbbbbbbbbb",
"bbbbbbbbbb......aaa........aaa......#bbbbbbbbbbb",
"bbbbbbbbb......aaaaa......aaaaa......#bbbbbbbbbb",
"bbbbbbbbb.......aaaaa....aaaaa.......#bbbbbbbbbb",
"bbbbbbbb.........aaaaa..aaaaa.........#bbbbbbbbb",
"bbbbbbbb..........aaaaaaaaaa..........#bbbbbbbbb",
"bbbbbbbb...........aaaaaaaa...........##bbbbbbbb",
"bbbbbbbb............aaaaaa............##bbbbbbbb",
"bbbbbbbb............aaaaaa............##bbbbbbbb",
"bbbbbbbb...........aaaaaaaa...........##bbbbbbbb",
"bbbbbbbb..........aaaaaaaaaa..........##bbbbbbbb",
"bbbbbbbb.........aaaaa..aaaaa.........##bbbbbbbb",
"bbbbbbbbb.......aaaaa....aaaaa.......##bbbbbbbbb",
"bbbbbbbbb......aaaaa......aaaaa......##bbbbbbbbb",
"bbbbbbbbbb......aaa........aaa......###bbbbbbbbb",
"bbbbbbbbbb.......a..........a.......##bbbbbbbbbb",
"bbbbbbbbbbb........................###bbbbbbbbbb",
"bbbbbbbbbbbb......................###bbbbbbbbbbb",
"bbbbbbbbbbbb#....................###bbbbbbbbbbbb",
"bbbbbbbbbbbbb#..................###bbbbbbbbbbbbb",
"bbbbbbbbbbbbbb#................###bbbbbbbbbbbbbb",
"bbbbbbbbbbbbbbb##............####bbbbbbbbbbbbbbb",
"bbbbbbbbbbbbbbbbb##........#####bbbbbbbbbbbbbbbb",
"bbbbbbbbbbbbbbbbbbb###########bbbbbbbbbbbbbbbbbb",
"bbbbbbbbbbbbbbbbbbbbb#######bbbbbbbbbbbbbbbbbbbb",
"bbbbbbbbbbbbbbbbbbbbbbbbbbbbbbbbbbbbbbbbbbbbbbbb",
"bbbbbbbbbbbbbbbbbbbbbbbbbbbbbbbbbbbbbbbbbbbbbbbb",
"bbbbbbbbbbbbbbbbbbbbbbbbbbbbbbbbbbbbbbbbbbbbbbbb",
"bbbbbbbbbbbbbbbbbbbbbbbbbbbbbbbbbbbbbbbbbbbbbbbb",
"bbbbbbbbbbbbbbbbbbbbbbbbbbbbbbbbbbbbbbbbbbbbbbbb",
"bbbbbbbbbbbbbbbbbbbbbbbbbbbbbbbbbbbbbbbbbbbbbbbb",
"bbbbbbbbbbbbbbbbbbbbbbbbbbbbbbbbbbbbbbbbbbbbbbbb"
};
