/* XPM */
static char *magick[] = {
/* columns rows colors chars-per-pixel */
"22 22 8 1",
"  c gray0",
". c gray19",
"X c #585858",
"o c #a0a0a4",
"O c silver",
"+ c gainsboro",
"@ c white",
"# s none c none",
/* pixels */
"######################",
"######################",
"######################",
"######################",
"####oX.Xo#############",
"####.OOOXo#####X.o####",
"####XOOOO.###oX.XXo###",
"####oXXOXX##oX.Xo#####",
"#####o.X.o#oX.o#######",
"#######oXXX.Xo########",
"##XXXXXXXX+XoXXXXXX###",
"#######o.XXXX@@@@@+###",
"#####oXXXo#o++o#######",
"####oX.O.X##+X.Xo#####",
"####XOOOO.##@oX.X.o###",
"####.OOOXo#@###XXo####",
"####oX.Xo##@##########",
"###########+##########",
"###########@##########",
"######################",
"######################",
"######################"
};
