/* XPM */
static char *magick[] = {
/* columns rows colors chars-per-pixel */
"22 22 7 1",
"  c black",
". c blue",
"X c red",
"o c #808080",
"O c gray74",
"+ c white",
"@ c None",
/* pixels */
"@@@@@@@@@@@@@@@@@@@@@@",
"@@@@@@@@@@@@@@@@@@@@@@",
"@@@@@@@@@@oX@@@@@@@@@@",
"@@@@@@@@@oXXXo@@@@@@@@",
"@@@@@@@@XXXXXXX@@@@@@@",
"@@@     XXo   oX  @@@@",
"@@@ ....XXo...... o@@@",
"@@@ ....Xo....... o@@@",
"@@@ +++XXX+++++++ o@@@",
"@@@ +XXXXXXX+++++ o@@@",
"@@@ ++XXXXX++++++ o@@@",
"@@@ +++XXX+++++++ o@@@",
"@@@ ++++X++++++++ o@@@",
"@@@ +++++++++++++ o@@@",
"@@@ +++++++++++++ o@@@",
"@@@ +++++++++++++ o@@@",
"@@@               o@@@",
"@@@@ooooooooooooooo@@@",
"@@@@@@@@@@@@@@@@@@@@@@",
"@@@@@@@@@@@@@@@@@@@@@@",
"@@@@@@@@@@@@@@@@@@@@@@",
"@@@@@@@@@@@@@@@@@@@@@@"
};
