/* XPM */
static char *magick[] = {
/* columns rows colors chars-per-pixel */
"22 22 8 1",
"  c gray0",
". c #808080",
"X c silver",
"o c gainsboro",
"O c white",
"+ s none c none",
"@ c gray0",
"# c gray0",
/* pixels */
"++++++++++++++++++++++",
"++++++++++++++++++++++",
"++++++++++++    ++++++",
"+++++++++++++++  + +++",
"++++++++++++++++   +++",
"++++++++++++++++   +++",
"+++++++++++++++    +++",
"++++    ++++++++++++++",
"++++ oOo       +++++++",
"++++ OoOoOoOoO +++++++",
"++++ oo          +++++",
"++++ Oo ooXXXXX. +++++",
"++++ o ooXoXXX. ++++++",
"++++ o ooXXX.X. ++++++",
"++++  ooXoXXX. +++++++",
"++++  ooXXX.X. +++++++",
"++++ ........ ++++++++",
"++++          ++++++++",
"++++++++++++++++++++++",
"++++++++++++++++++++++",
"++++++++++++++++++++++",
"++++++++++++++++++++++"
};
