/* XPM */
static char * u_xpm[] = {
/* width height num_colors chars_per_pixel */
"20 20 3 1",
/* colors */
" 	s None	c None",
".	c #000000",
"X	c #008080",
/* pixels */
"                    ",
"                    ",
"                    ",
"         ..         ",
"         ..         ",
"        .XX.        ",
"        .XX.        ",
"       .XXXX.       ",
"       .XXXX.       ",
"      .XXXXXX.      ",
"      .XXXXXX.      ",
"     .XXXXXXXX.     ",
"     .XXXXXXXX.     ",
"    .XXXXXXXXXX.    ",
"    .XXXXXXXXXX.    ",
"   .XXXXXXXXXXXX.   ",
"   ..............   ",
"                    ",
"                    ",
"                    "};
