/* XPM */
static char * logo2_xpm[] = {
"48 57 16 1",
" 	c None",
".	c #020202",
"+	c #2A251E",
"@	c #A87209",
"#	c #90836E",
"$	c #F1CE22",
"%	c #D5990B",
"&	c #A5A5A6",
"*	c #BABABA",
"=	c #F3BF0F",
"-	c #C2C2C2",
";	c #CECABE",
">	c #F6D22A",
",	c #DDD19A",
"'	c #674607",
")	c #F9F9F9",
"                     ......                     ",
"                   ..........                   ",
"                 .........+++.                  ",
"                 .........+#'..                 ",
"                ..........+'+...                ",
"                ..........+.....                ",
"                ................                ",
"                ...+.......#.....               ",
"                ..&#....#&&&+....               ",
"                .#-,#...;))&.....               ",
"                .#.#)..#)+')*....               ",
"                .;.&)++#)..#)....               ",
"                .-..)%#')...)....               ",
"                ...@=$>@=..))....               ",
"                ..%==$$$$$=='....               ",
"                .@%==$$;=$>@=....               ",
"                .@%==$$$$$#%%.....              ",
"                ..+==$$#@%%%-.'#..              ",
"                .-&@=&%%%%&;*..##..             ",
"                .&*&@@%@@*-));.....             ",
"                .-;**##*--)))).....+            ",
"               +.))-*;--))))))+.....            ",
"              ..;)))-*-))))))))......           ",
"             ...))))))))))))))).......          ",
"             ..;)))))))))))))));.......         ",
"            ...*))))))))))))),)).......         ",
"           ...+&;,))),))));-;;*)........        ",
"          ....*,))))))))))))));*)..+.....       ",
"          ....,)))))))))))))))),;...+....       ",
"          ...))))))))))))))))))),).+.+...       ",
"          ...)))))))))))))))))))))+++.....      ",
"         .+.')))))))))))))))))))))).......      ",
"         .+.))))))),)))))))))))))))...+...      ",
"        ....)))))));)))))))))))))))...+....     ",
"        ...&))))))),)))))))))))))))...+....     ",
"       ..+.*))))))),)))))))))))))))........     ",
"       ..+.-))))))),)))))))))))))))........     ",
"       ..+.*)))))));)))))))))))))))..+.....     ",
"       ...;))))))));))))))))))))))).++++...     ",
"       %==.))))))));)))))))))))))))+.....+.     ",
"      %%>$=.*)))))))))))))))))))%=$.......=     ",
"      %%$$==.&)))));))))))))))))%==......>$>    ",
"     @=%=$$=%.+)))))))))))))))))==%.....+$==    ",
" @%%%%======>...))))))),)))))))*%=%@@++@%===    ",
"%%=====%%$$%=%...))))))))))))))*%=%%@%@%====    ",
"%====%>==%=>=>....)))))))))))))-@%=%%%%%%====   ",
"@=====>==%$====...)))))))))))))-@%======$===$=  ",
"@====%==>%===$=%..))))))))))))).@%========$==%==",
"%%===>==$=$=====))))))))))))))..@%=%==$=%==$$$%$",
"%%==$==$=$$=====%)))))))))))....%%==$==$=$==$$= ",
"%%$==%===%%====%%'))))),)))....+@%==$=$$%==%==  ",
"%%===%=======$==%@...#.........+%%=$=$=====%%   ",
"%%%%%%%=%======%@@.............'@%===%==%%@     ",
"  '@@%@%%%%====%@'.............'@@%%=%%%%       ",
"      '@@@@%%@@@@'..           +@@%@%%@'        ",
"          +@@@@''               +@@@@@'         ",
"            +''+                 +'''+          "};
